<svg width="92" height="91" viewBox="0 0 92 91" fill="none" xmlns="http://www.w3.org/2000/svg">
<path fill-rule="evenodd" clip-rule="evenodd" d="M0 45.5C0 20.371 20.5949 0 46 0C71.4051 0 92 20.371 92 45.5C92 70.629 71.4051 91 46 91C20.5949 91 0 70.629 0 45.5ZM53.4887 26.8478C55.2451 24.6052 56.5765 21.4355 56.0949 18.2C53.2243 18.3973 49.869 20.214 47.9112 22.5818C46.1265 24.7273 44.6598 27.919 45.2326 31.0166C48.3708 31.1137 51.6096 29.2532 53.4887 26.8478ZM69 57.2825C59.8657 53.8466 58.4021 41.0018 67.4419 36.0719C64.6847 32.6516 60.81 30.669 57.1525 30.669C52.321 30.669 50.2782 32.9554 46.9229 32.9554C43.4637 32.9554 40.8355 30.6752 36.6586 30.6752C32.5542 30.6752 28.1853 33.1559 25.4155 37.3967C21.5219 43.3697 22.186 54.5983 28.5001 64.1638C30.7569 67.5872 33.7723 71.4335 37.7162 71.4679C41.2258 71.5024 42.2172 69.241 46.9732 69.2159C51.7292 69.1877 52.6326 71.4961 56.1358 71.4585C60.0829 71.4272 63.2651 67.1644 65.5219 63.741C67.1398 61.2885 67.7441 60.0513 69 57.2825Z" fill="white"/>
</svg>