<svg width="134" height="134" viewBox="0 0 134 134" fill="none" xmlns="http://www.w3.org/2000/svg">
<path d="M53.2147 40.6523C41.5986 52.26 36.3977 63.7673 34.4547 77.1003C37.7186 75.4875 41.419 74.982 44.9958 75.6603C48.5727 76.3386 51.8311 78.1638 54.2779 80.8595C56.7247 83.5553 58.2266 86.9748 58.5562 90.6004C58.8858 94.226 58.0252 97.8603 56.1047 100.953C54.1842 104.046 51.3084 106.429 47.9125 107.741C44.5167 109.053 40.7858 109.223 37.2846 108.226C33.7834 107.228 30.7026 105.117 28.5086 102.212C26.3145 99.3065 25.1267 95.7656 25.125 92.125C25.1334 70.417 29.547 52.4778 47.2936 34.7228C48.0799 33.9365 49.1464 33.4947 50.2584 33.4947C51.3704 33.4947 52.4368 33.9365 53.2231 34.7228C54.0094 35.5091 54.4511 36.5755 54.4511 37.6875C54.4511 38.7995 54.0094 39.866 53.2231 40.6523H53.2147ZM103.465 40.6523C91.8486 52.26 86.6394 63.7673 84.7047 77.1003C87.9686 75.4875 91.669 74.982 95.2458 75.6603C98.8226 76.3386 102.081 78.1638 104.528 80.8595C106.975 83.5553 108.477 86.9748 108.806 90.6004C109.136 94.226 108.275 97.8603 106.355 100.953C104.434 104.046 101.558 106.429 98.1625 107.741C94.7667 109.053 91.0358 109.223 87.5346 108.226C84.0334 107.228 80.9526 105.117 78.7586 102.212C76.5645 99.3065 75.3767 95.7656 75.375 92.125C75.3834 70.417 79.797 52.4778 97.5436 34.7228C98.3299 33.9365 99.3964 33.4947 100.508 33.4947C101.62 33.4947 102.687 33.9365 103.473 34.7228C104.259 35.5091 104.701 36.5755 104.701 37.6875C104.701 38.7995 104.259 39.866 103.473 40.6523H103.465Z" fill="white" fill-opacity="0.1"/>
</svg>
