<svg width="134" height="134" viewBox="0 0 134 134" fill="none" xmlns="http://www.w3.org/2000/svg">
<path d="M80.7853 93.3477C92.4014 81.74 97.6023 70.2327 99.5453 56.8997C96.2814 58.5125 92.581 59.018 89.0042 58.3397C85.4273 57.6614 82.1689 55.8362 79.7221 53.1405C77.2753 50.4447 75.7734 47.0252 75.4438 43.3996C75.1142 39.774 75.9748 36.1397 77.8953 33.0469C79.8158 29.9541 82.6916 27.5712 86.0875 26.259C89.4833 24.9467 93.2142 24.7766 96.7154 25.7743C100.217 26.772 103.297 28.8832 105.491 31.7884C107.685 34.6935 108.873 38.2344 108.875 41.875C108.867 63.583 104.453 81.5222 86.7064 99.2772C85.9201 100.064 84.8536 100.505 83.7416 100.505C82.6296 100.505 81.5632 100.064 80.7769 99.2772C79.9906 98.4909 79.5489 97.4245 79.5489 96.3125C79.5489 95.2005 79.9906 94.134 80.7769 93.3477H80.7853ZM30.5353 93.3477C42.1514 81.74 47.3606 70.2327 49.2953 56.8997C46.0314 58.5125 42.331 59.018 38.7542 58.3397C35.1774 57.6614 31.9189 55.8362 29.4721 53.1405C27.0253 50.4447 25.5235 47.0252 25.1938 43.3996C24.8642 39.774 25.7248 36.1397 27.6453 33.0469C29.5658 29.9541 32.4416 27.5712 35.8375 26.259C39.2333 24.9467 42.9642 24.7766 46.4654 25.7743C49.9666 26.772 53.0474 28.8832 55.2414 31.7884C57.4355 34.6935 58.6233 38.2344 58.625 41.875C58.6166 63.583 54.203 81.5222 36.4564 99.2772C35.6701 100.064 34.6036 100.505 33.4916 100.505C32.3796 100.505 31.3132 100.064 30.5269 99.2772C29.7406 98.4909 29.2989 97.4245 29.2989 96.3125C29.2989 95.2005 29.7406 94.134 30.5269 93.3477H30.5353Z" fill="white" fill-opacity="0.1"/>
</svg>
