<svg width="92" height="91" viewBox="0 0 92 91" fill="none" xmlns="http://www.w3.org/2000/svg">
<path fill-rule="evenodd" clip-rule="evenodd" d="M46 91C20.5949 91 0 70.629 0 45.5C0 20.371 20.5949 0 46 0C71.4051 0 92 20.371 92 45.5C92 70.629 71.4051 91 46 91ZM53.1998 24.0701L53.7842 23.2201L54.3685 22.3824L55.6707 20.4991C55.8326 20.2667 55.766 19.9548 55.5246 19.802C55.2864 19.646 54.9593 19.7103 54.8036 19.9426L52.2184 23.6696C50.3288 22.9633 48.2231 22.5689 46 22.5689C43.78 22.5689 41.6712 22.9633 39.7816 23.6696L39.1877 22.8074L37.2027 19.9426C37.0407 19.7103 36.7168 19.6491 36.4754 19.802C36.2372 19.9548 36.1705 20.2667 36.3293 20.4991L37.6315 22.3824L38.2158 23.2201L38.8034 24.0701C34.3666 26.0605 31.3654 29.8303 31.3654 34.1442H60.6346C60.6346 29.8303 57.6334 26.0605 53.1998 24.0701ZM31.3654 36.156V58.2977C31.3654 60.0557 32.8485 61.4866 34.6779 61.4866H37.0661C36.9836 61.7526 36.9391 62.0308 36.9391 62.3243V68.699C36.9391 70.3653 38.346 71.7167 40.0769 71.7167C41.8078 71.7167 43.2147 70.3653 43.2147 68.699V62.3243C43.2147 62.0308 43.1671 61.7526 43.0877 61.4866H48.9123C48.8329 61.7526 48.7885 62.0308 48.7885 62.3243V68.699C48.7885 70.3653 50.1922 71.7167 51.9231 71.7167C53.6571 71.7167 55.0641 70.3653 55.0641 68.699V62.3243C55.0641 62.0308 55.0164 61.7526 54.9339 61.4866H57.3253C59.1547 61.4866 60.6346 60.0557 60.6346 58.2977V36.156H31.3654ZM26.1378 36.156C24.4038 36.156 23 37.5074 23 39.1737V52.0912C23 53.7575 24.4038 55.1089 26.1378 55.1089C27.8687 55.1089 29.2724 53.7575 29.2724 52.0912V39.1737C29.2724 37.5074 27.8687 36.156 26.1378 36.156ZM65.8654 36.156C64.1313 36.156 62.7276 37.5074 62.7276 39.1737V52.0912C62.7276 53.7575 64.1313 55.1089 65.8654 55.1089C67.5962 55.1089 69 53.7575 69 52.0912V39.1737C69 37.5074 67.5962 36.156 65.8654 36.156Z" fill="white"/>
<path fill-rule="evenodd" clip-rule="evenodd" d="M39.7276 30.1176C38.8605 30.1176 38.1587 29.442 38.1587 28.6073C38.1587 27.7726 38.8605 27.1 39.7276 27.1C40.5946 27.1 41.2965 27.7726 41.2965 28.6073C41.2965 29.442 40.5946 30.1176 39.7276 30.1176Z" fill="white"/>
<path fill-rule="evenodd" clip-rule="evenodd" d="M52.2724 30.1176C51.4054 30.1176 50.7035 29.442 50.7035 28.6073C50.7035 27.7726 51.4054 27.1 52.2724 27.1C53.1395 27.1 53.8413 27.7726 53.8413 28.6073C53.8413 29.442 53.1395 30.1176 52.2724 30.1176Z" fill="white"/>
</svg>
